<?xml version="1.0" encoding="UTF-8"?><svg id="a" xmlns="http://www.w3.org/2000/svg" viewBox="0 0 161.19 141.32"><defs><style>.b{fill:#0c9;}</style></defs><path class="b" d="M101.94,124.78c-13.76,5.18-28.94,5.2-42.72,.06,14.2-1.45,28.51-1.47,42.72-.06ZM22.87,86.54C10.1,48.59,40.35,7.01,80.52,7.7c40.17-.69,70.42,40.86,57.65,78.8-37.48-12.06-77.81-12.05-115.29,.03h0Zm27.67-47.81c1.39,1.36,13.26,12.93,14.99,14.61-.29,1.71-3.33,19.48-3.52,20.6,3.99-2.09,14.37-7.54,18.51-9.72,4.08,2.14,14.58,7.65,18.51,9.72-.2-1.2-3.22-18.81-3.52-20.6,1.66-1.61,13.66-13.31,14.99-14.61-4.4-.63-16.14-2.33-20.72-3l-9.25-18.77-9.25,18.77c-4.46,.65-16.74,2.43-20.72,3h0Zm84.91,71.65l19.82-11.38h0c-23.6-10.27-49.05-15.57-74.79-15.58s-51.19,5.29-74.79,15.55l19.88,11.41L0,132.37c55.49-19.08,105.87-19.39,161.19,.15l-25.73-22.15Z"/></svg>