<svg version="1.2" xmlns="http://www.w3.org/2000/svg" viewBox="0 0 162 142" width="162" height="142">
	<title>certification-svg</title>
	<style>
		.s0 { fill: #ff1561 } 
	</style>
	<path id="Layer" fill-rule="evenodd" class="s0" d="m135.4 110.4h0.1zm0 0l25.7 22.1c-55.3-19.5-105.7-19.2-161.2-0.1l25.6-22-19.9-11.4c23.6-10.3 49-15.6 74.8-15.6 25.7 0 51.2 5.3 74.8 15.6zm-112.6-23.8c-12.8-38 17.5-79.6 57.6-78.9 40.2-0.7 70.5 40.9 57.7 78.8-37.5-12-77.8-12-115.3 0zm27.7-47.8c1.4 1.4 13.2 13 15 14.6-0.3 1.8-3.4 19.5-3.6 20.6 4-2 14.4-7.5 18.5-9.7 4.1 2.2 14.6 7.7 18.6 9.7-0.2-1.2-3.3-18.8-3.6-20.6 1.7-1.6 13.7-13.3 15-14.6-4.4-0.6-16.1-2.3-20.7-3l-9.2-18.7-9.3 18.7c-4.5 0.7-16.7 2.5-20.7 3zm51.4 86.1c-13.8 5.2-29 5.2-42.7 0 14.2-1.4 28.5-1.4 42.7 0z"/>
</svg>