<svg version="1.2" xmlns="http://www.w3.org/2000/svg" viewBox="0 0 162 142" width="162" height="142">
	<title>instructors-svg</title>
	<defs>
		<clipPath clipPathUnits="userSpaceOnUse" id="cp1">
			<path d="m154.37 2.93h-152.92v10.55h147.65v98.57h-42.94v10.55h48.22c1.4 0 2.74-0.56 3.73-1.54 0.99-0.99 1.54-2.33 1.54-3.73v-109.12c0-1.4-0.56-2.74-1.54-3.73-0.99-0.99-2.33-1.54-3.73-1.54zm-133.66 44.82c3.15 3.15 7.42 4.92 11.87 4.92 4.45 0 8.72-1.77 11.87-4.92 3.15-3.15 4.92-7.42 4.92-11.87 0-4.45-1.77-8.72-4.92-11.87-3.15-3.15-7.42-4.92-11.87-4.92-4.45 0-8.72 1.77-11.87 4.92-3.15 3.15-4.92 7.42-4.92 11.87 0 4.45 1.77 8.72 4.92 11.87zm-5.09 17.14c-3.76 0-7.36 1.49-10.02 4.15-2.66 2.66-4.15 6.26-4.15 10.02v58.21h56.34v-52.47l22.68 15.03c1.72 1.14 3.79 1.6 5.83 1.29 2.03-0.31 3.88-1.36 5.18-2.96l17.83-21.83c1.48-1.82 2.13-4.17 1.78-6.49-0.35-2.32-1.66-4.38-3.61-5.68-1.79-1.12-3.92-1.54-6-1.18-2.07 0.36-3.94 1.48-5.25 3.13l-12.85 15.74-20.63-13.67c-3.23-2.14-7.02-3.28-10.9-3.28h-36.23z"/>
		</clipPath>
	</defs>
	<style>
		.s0 { fill: #00cc99 } 
		.s1 { fill: #ff1561 } 
	</style>
	<g clip-path="url(#cp1)">
		<path id="Layer" fill-rule="evenodd" class="s0" d="m154.4 2.9h-153v10.6h147.7v98.5h-42.9v10.6h48.2c1.4 0 2.7-0.6 3.7-1.5 1-1 1.5-2.4 1.5-3.8v-109.1c0-1.4-0.5-2.7-1.5-3.7-1-1-2.3-1.6-3.7-1.6zm-133.7 44.9c3.2 3.1 7.4 4.9 11.9 4.9 4.4 0 8.7-1.8 11.9-4.9 3.1-3.2 4.9-7.5 4.9-11.9 0-4.5-1.8-8.7-4.9-11.9-3.2-3.1-7.5-4.9-11.9-4.9-4.5 0-8.7 1.8-11.9 4.9-3.1 3.2-4.9 7.4-4.9 11.9 0 4.4 1.8 8.7 4.9 11.9zm-5.1 17.1c-3.7 0-7.3 1.5-10 4.1-2.7 2.7-4.1 6.3-4.1 10.1v58.2h56.3v-52.5l22.7 15c1.7 1.2 3.8 1.6 5.8 1.3 2-0.3 3.9-1.3 5.2-2.9l17.8-21.9c1.5-1.8 2.1-4.1 1.8-6.5-0.4-2.3-1.7-4.3-3.6-5.6-1.8-1.1-3.9-1.6-6-1.2-2.1 0.4-4 1.5-5.3 3.1l-12.8 15.8-20.6-13.7c-3.3-2.1-7.1-3.3-10.9-3.3h-36.3z"/>
		<path id="Shape 1" class="s1" d="m-34-36h232v207h-232z"/>
	</g>
</svg>