<?xml version="1.0" encoding="UTF-8"?><svg id="a" xmlns="http://www.w3.org/2000/svg" viewBox="0 0 161.19 141.32"><defs><style>.b{fill:#0c9;}</style></defs><path class="b" d="M15.79,35.88c0-4.45,1.77-8.72,4.92-11.87,3.15-3.15,7.42-4.92,11.87-4.92s8.72,1.77,11.87,4.92c3.15,3.15,4.92,7.42,4.92,11.87s-1.77,8.72-4.92,11.87c-3.15,3.15-7.42,4.92-11.87,4.92s-8.72-1.77-11.87-4.92c-3.15-3.15-4.92-7.42-4.92-11.87h0ZM154.37,2.93H1.45V13.48H149.1V112.05h-42.94v10.55h48.22c1.4,0,2.74-.56,3.73-1.54,.99-.99,1.54-2.33,1.54-3.73V8.21c0-1.4-.56-2.74-1.54-3.73-.99-.99-2.33-1.54-3.73-1.54h0ZM15.62,64.9H51.85c3.88,0,7.67,1.14,10.9,3.28l20.63,13.67,12.85-15.74c1.31-1.65,3.18-2.77,5.25-3.13,2.08-.36,4.21,.06,6,1.18,1.95,1.3,3.26,3.36,3.61,5.68,.35,2.32-.3,4.67-1.78,6.49l-17.83,21.83h0c-1.3,1.6-3.15,2.65-5.18,2.96-2.04,.31-4.11-.15-5.83-1.29l-22.68-15.03v52.47H1.45v-58.21c0-3.76,1.49-7.36,4.15-10.02,2.66-2.66,6.26-4.15,10.02-4.15h0Z"/></svg>