<svg version="1.2" xmlns="http://www.w3.org/2000/svg" viewBox="0 0 162 142" width="162" height="142"><defs><clipPath clipPathUnits="userSpaceOnUse" id="cp1"><path d="m159.64 115.02v6.58c0 7.23-5.93 13.16-13.17 13.16h-131.66c-7.24 0-13.17-5.92-13.17-13.16v-6.58h13.16v-98.74c0-7.24 5.93-13.17 13.17-13.17h105.34c7.23 0 13.16 5.93 13.16 13.17v98.74zm-26.32 0v-42.79h-46.08v42.79h9.87v-6.58c0-3.62 2.96-6.58 6.58-6.58h13.16c3.62 0 6.58 2.96 6.58 6.58v6.58zm0-55.95v-42.79h-46.08v42.79h9.87v-6.58c0-3.62 2.96-6.58 6.58-6.58h13.16c3.62 0 6.58 2.96 6.58 6.58v6.58zm-105.33-42.79v42.79h9.87v-6.58c0-3.62 2.96-6.58 6.58-6.58h13.17c3.62 0 6.58 2.96 6.58 6.58v6.58h9.87v-42.79c0.01 0-46.07 0-46.07 0zm-0.01 98.74h9.87v-6.58c0-3.62 2.96-6.58 6.58-6.58h13.17c3.62 0 6.58 2.96 6.58 6.58v6.58h9.87v-42.79h-46.08c0.01 0 0.01 42.79 0.01 42.79z"/></clipPath></defs><style>.a{fill:#0c9}.b{fill:#ff1561}</style><path class="a" d="m57.6 32.7c0 3.7-3 6.6-6.6 6.6-3.6 0-6.6-2.9-6.6-6.6 0-3.6 3-6.5 6.6-6.5 3.6 0 6.6 2.9 6.6 6.5z"/><path class="a" d="m116.8 32.7c0 3.7-2.9 6.6-6.5 6.6-3.7 0-6.6-2.9-6.6-6.6 0-3.6 2.9-6.5 6.6-6.5 3.6 0 6.5 2.9 6.5 6.5z"/><path class="a" d="m57.6 88.7c0 3.6-3 6.6-6.6 6.6-3.6 0-6.6-3-6.6-6.6 0-3.6 3-6.6 6.6-6.6 3.6 0 6.6 3 6.6 6.6z"/><path class="a" d="m116.8 88.7c0 3.6-2.9 6.6-6.5 6.6-3.7 0-6.6-3-6.6-6.6 0-3.6 2.9-6.6 6.6-6.6 3.6 0 6.5 3 6.5 6.6z"/><g clip-path="url(#cp1)"><path fill-rule="evenodd" class="a" d="m159.6 115v6.6c0 7.2-5.9 13.2-13.1 13.2h-131.7c-7.2 0-13.2-6-13.2-13.2v-6.6h13.2v-98.7c0-7.3 5.9-13.2 13.2-13.2h105.3c7.2 0 13.2 5.9 13.2 13.2v98.7zm-26.3 0v-42.8h-46.1v42.8h9.8v-6.6c0-3.6 3-6.5 6.6-6.5h13.2c3.6 0 6.6 2.9 6.6 6.5v6.6zm0-55.9v-42.8h-46.1v42.8h9.9v-6.6c0-3.6 2.9-6.6 6.5-6.6h13.2c3.6 0 6.6 3 6.6 6.6v6.6zm-105.4-42.8v42.8h9.9v-6.6c0-3.6 3-6.6 6.6-6.6h13.2c3.6 0 6.5 3 6.5 6.6v6.6h9.9v-42.8zm0 98.7h9.9v-6.6c0-3.6 3-6.5 6.6-6.5h13.2c3.6 0 6.5 2.9 6.5 6.5v6.6h9.9v-42.8h-46.1z"/><path class="b" d="m-40-33h238v205h-238z"/><path class="b" d="m-182-18v1z"/><path class="b" d="m-192-99h100v100h-100z"/><path class="b" d="m36 23h27v20h-27z"/><path class="b" d="m101 26h21v17h-21z"/><path class="b" d="m176-164h100v100h-100z"/><path class="b" d="m39 21h24v21h-24z"/><path class="b" d="m-181-149h100v100h-100z"/></g></svg>