<?xml version="1.0" encoding="UTF-8"?><svg id="a" xmlns="http://www.w3.org/2000/svg" viewBox="0 0 161.19 141.32"><defs><style>.b{fill:#0c9;}</style></defs><path class="b" d="M57.6,32.74c0,3.64-2.95,6.58-6.58,6.58s-6.58-2.95-6.58-6.58,2.95-6.58,6.58-6.58,6.58,2.95,6.58,6.58"/><path class="b" d="M116.84,32.74c0,3.64-2.95,6.58-6.58,6.58s-6.58-2.95-6.58-6.58,2.95-6.58,6.58-6.58,6.58,2.95,6.58,6.58"/><path class="b" d="M57.6,88.69c0,3.64-2.95,6.58-6.58,6.58s-6.58-2.95-6.58-6.58,2.95-6.58,6.58-6.58,6.58,2.95,6.58,6.58"/><path class="b" d="M116.84,88.69c0,3.64-2.95,6.58-6.58,6.58s-6.58-2.95-6.58-6.58,2.95-6.58,6.58-6.58,6.58,2.95,6.58,6.58"/><path class="b" d="M146.47,115.02V16.28c0-7.24-5.93-13.17-13.16-13.17H27.97c-7.24,0-13.17,5.93-13.17,13.17V115.02H1.64v6.58c0,7.24,5.93,13.16,13.17,13.16H146.47c7.24,0,13.17-5.93,13.17-13.16v-6.58h-13.17Zm-23.04,0v-6.58c0-3.62-2.96-6.58-6.58-6.58h-13.16c-3.62,0-6.58,2.96-6.58,6.58v6.58h-9.87v-42.79h46.08v42.79h-9.87Zm9.87-55.95h-9.87v-6.58c0-3.62-2.96-6.58-6.58-6.58h-13.16c-3.62,0-6.58,2.96-6.58,6.58v6.58h-9.87V16.28h46.08V59.07ZM74.06,16.28V59.07h-9.87v-6.58c0-3.62-2.96-6.58-6.58-6.58h-13.17c-3.62,0-6.58,2.96-6.58,6.58v6.58h-9.87V16.28h46.08ZM27.97,72.23h46.08v42.79h-9.87v-6.58c0-3.62-2.96-6.58-6.58-6.58h-13.17c-3.62,0-6.58,2.96-6.58,6.58v6.58h-9.87v-42.79Z"/></svg>