<?xml version="1.0" encoding="UTF-8"?><svg id="a" xmlns="http://www.w3.org/2000/svg" viewBox="0 0 161.19 141.32"><defs><style>.b{fill:#0c9;}</style></defs><path class="b" d="M124.74,38.05H37.78c-1.44,0-2.82,.58-3.84,1.59s-1.59,2.4-1.59,3.84v48.92c0,1.44,.58,2.82,1.59,3.84s2.4,1.59,3.84,1.59H124.74c1.44,0,2.82-.58,3.84-1.59s1.59-2.4,1.59-3.84V43.48c0-1.44-.58-2.82-1.59-3.84s-2.4-1.59-3.84-1.59h0Zm-31.03,32.11l-19.02,13.59c-.83,.59-1.92,.67-2.82,.21-.91-.47-1.47-1.4-1.47-2.42v-27.18c0-1.02,.57-1.95,1.47-2.42,.91-.47,2-.39,2.82,.21l19.02,13.59c.71,.51,1.14,1.33,1.14,2.21s-.42,1.7-1.14,2.21h0Zm-17.89-10.52l11.63,8.31-11.63,8.31v-16.61ZM154.64,0H7.88c-1.44,0-2.82,.58-3.84,1.59s-1.59,2.4-1.59,3.84V135.88c0,1.44,.58,2.82,1.59,3.84s2.4,1.59,3.84,1.59H154.64c1.44,0,2.82-.58,3.84-1.59s1.59-2.4,1.59-3.84V5.44c0-1.44-.58-2.82-1.59-3.84s-2.4-1.59-3.84-1.59h0ZM40.5,13.59c0,1.1-.66,2.09-1.68,2.51-1.02,.42-2.18,.19-2.96-.59s-1.01-1.95-.59-2.96c.42-1.02,1.41-1.68,2.51-1.68,.72,0,1.41,.29,1.92,.8s.8,1.2,.8,1.92Zm-10.87,0c0,1.1-.66,2.09-1.68,2.51-1.02,.42-2.18,.19-2.96-.59s-1.01-1.95-.59-2.96c.42-1.02,1.41-1.68,2.51-1.68,.72,0,1.41,.29,1.92,.8s.8,1.2,.8,1.92Zm-10.87,0c0,1.1-.66,2.09-1.68,2.51-1.02,.42-2.18,.19-2.96-.59s-1.01-1.95-.59-2.96c.42-1.02,1.41-1.68,2.51-1.68,.72,0,1.41,.29,1.92,.8s.8,1.2,.8,1.92ZM7.88,135.88V27.18H154.64v108.71H7.88Zm122.29-21.74c0,.72-.29,1.41-.8,1.92s-1.2,.8-1.92,.8H62.24v2.72c0,.72-.29,1.41-.8,1.92s-1.2,.8-1.92,.8h-10.87c-.72,0-1.41-.29-1.92-.8s-.8-1.2-.8-1.92v-2.72h-10.87c-1.5,0-2.72-1.22-2.72-2.72s1.22-2.72,2.72-2.72h10.87v-2.72c0-.72,.29-1.41,.8-1.92s1.2-.8,1.92-.8h10.87c.72,0,1.41,.29,1.92,.8s.8,1.2,.8,1.92v2.72H127.46c.72,0,1.41,.29,1.92,.8s.8,1.2,.8,1.92Z"/></svg>