<svg version="1.2" xmlns="http://www.w3.org/2000/svg" viewBox="0 0 162 142" width="162" height="142">
	<title>materials-svg</title>
	<defs>
		<clipPath clipPathUnits="userSpaceOnUse" id="cp1">
			<path d="m154.64 0.01c1.44 0 2.83 0.57 3.84 1.59 1.01 1.02 1.59 2.4 1.59 3.84v130.44c0 1.44-0.57 2.83-1.59 3.84-1.02 1.01-2.4 1.59-3.84 1.59h-146.76c-1.44 0-2.83-0.57-3.84-1.59-1.01-1.02-1.59-2.4-1.59-3.84v-130.45c0-1.44 0.57-2.83 1.59-3.84 1.02-1.01 2.4-1.59 3.84-1.59h146.76zm0 135.88v-108.71h-146.76v108.7c0 0.01 146.76 0.01 146.76 0.01zm-26.06-96.25c1.01 1.02 1.59 2.4 1.59 3.84v48.92c0 1.44-0.57 2.83-1.59 3.84-1.02 1.01-2.4 1.59-3.84 1.59h-86.96c-1.44 0-2.83-0.57-3.84-1.59-1.01-1.02-1.59-2.4-1.59-3.84v-48.92c0-1.44 0.57-2.83 1.59-3.84 1.02-1.01 2.4-1.59 3.84-1.59h86.96c1.44 0 2.83 0.57 3.84 1.59zm-33.73 28.31c0-0.88-0.43-1.7-1.14-2.21l-19.02-13.59c-0.82-0.6-1.91-0.68-2.82-0.21-0.9 0.47-1.47 1.4-1.47 2.42v27.18c0 1.02 0.56 1.95 1.47 2.42 0.9 0.46 1.99 0.38 2.82-0.21l19.02-13.59c0.72-0.51 1.14-1.33 1.14-2.21zm-55.15-56.28c-0.51-0.51-1.2-0.8-1.92-0.8-1.1 0-2.09 0.66-2.51 1.68-0.42 1.01-0.19 2.18 0.59 2.96 0.78 0.78 1.94 1.01 2.96 0.59 1.02-0.42 1.68-1.41 1.68-2.51 0-0.72-0.29-1.41-0.8-1.92zm-10.87 0c-0.51-0.51-1.2-0.8-1.92-0.8-1.1 0-2.09 0.66-2.51 1.68-0.42 1.01-0.19 2.18 0.59 2.96 0.78 0.78 1.94 1.01 2.96 0.59 1.02-0.42 1.68-1.41 1.68-2.51 0-0.72-0.29-1.41-0.8-1.92zm-10.87 0c-0.51-0.51-1.2-0.8-1.92-0.8-1.1 0-2.09 0.66-2.51 1.68-0.42 1.01-0.19 2.18 0.59 2.96 0.78 0.78 1.94 1.01 2.96 0.59 1.02-0.42 1.68-1.41 1.68-2.51 0-0.72-0.29-1.41-0.8-1.92zm57.86 47.97l11.63 8.31-11.63 8.31zm54.35 54.5c0 0.72-0.29 1.41-0.8 1.92-0.51 0.51-1.2 0.8-1.92 0.8h-65.21v2.72c0 0.72-0.29 1.41-0.8 1.92-0.51 0.51-1.2 0.8-1.92 0.8h-10.87c-0.72 0-1.41-0.29-1.92-0.8-0.51-0.51-0.8-1.2-0.8-1.92v-2.72h-10.87c-1.5 0-2.72-1.22-2.72-2.72 0-1.5 1.22-2.72 2.72-2.72h10.87v-2.72c0-0.72 0.29-1.41 0.8-1.92 0.51-0.51 1.2-0.8 1.92-0.8h10.87c0.72 0 1.41 0.29 1.92 0.8 0.51 0.51 0.8 1.2 0.8 1.92v2.72h65.22c0.72 0 1.41 0.29 1.92 0.8 0.51 0.51 0.8 1.2 0.79 1.92z"/>
		</clipPath>
	</defs>
	<style>
		.s0 { fill: #00cc99 } 
		.s1 { fill: #ff1561 } 
	</style>
	<g clip-path="url(#cp1)">
		<path id="Layer" fill-rule="evenodd" class="s0" d="m154.6 0c1.5 0 2.9 0.6 3.9 1.6 1 1 1.6 2.4 1.6 3.8v130.5c0 1.4-0.6 2.8-1.6 3.8-1 1-2.4 1.6-3.9 1.6h-146.7c-1.5 0-2.9-0.6-3.9-1.6-1-1-1.6-2.4-1.6-3.8v-130.5c0-1.4 0.6-2.8 1.6-3.8 1.1-1 2.4-1.6 3.9-1.6h146.7zm0 135.9v-108.7h-146.7v108.7c0 0 146.7 0 146.7 0zm-26-96.3c1 1.1 1.6 2.4 1.6 3.9v48.9c0 1.4-0.6 2.8-1.6 3.8-1 1-2.4 1.6-3.9 1.6h-86.9c-1.5 0-2.8-0.5-3.9-1.6-1-1-1.5-2.4-1.5-3.8v-48.9c0-1.5 0.5-2.9 1.5-3.9 1.1-1 2.4-1.6 3.9-1.6h86.9c1.5 0 2.9 0.6 3.9 1.6zm-33.8 28.3c0-0.8-0.4-1.7-1.1-2.2l-19-13.6c-0.8-0.6-1.9-0.6-2.8-0.2-0.9 0.5-1.5 1.4-1.5 2.5v27.1c0 1 0.6 2 1.5 2.5 0.9 0.4 2 0.3 2.8-0.3l19-13.5c0.7-0.6 1.1-1.4 1.1-2.3zm-55.1-56.2c-0.5-0.5-1.2-0.8-1.9-0.8-1.1 0-2.1 0.6-2.5 1.6-0.4 1.1-0.2 2.2 0.6 3 0.7 0.8 1.9 1 2.9 0.6 1-0.4 1.7-1.4 1.7-2.5 0-0.7-0.3-1.4-0.8-1.9zm-10.9 0c-0.5-0.5-1.2-0.8-1.9-0.8-1.1 0-2.1 0.6-2.5 1.6-0.4 1.1-0.2 2.2 0.6 3 0.8 0.8 1.9 1 3 0.6 1-0.4 1.6-1.4 1.6-2.5 0-0.7-0.3-1.4-0.8-1.9zm-10.8 0c-0.5-0.5-1.2-0.8-2-0.8-1.1 0-2 0.6-2.5 1.6-0.4 1.1-0.2 2.2 0.6 3 0.8 0.8 2 1 3 0.6 1-0.4 1.7-1.4 1.7-2.5 0-0.7-0.3-1.4-0.8-1.9zm57.8 47.9l11.6 8.3-11.6 8.4zm54.4 54.5c0 0.7-0.3 1.4-0.8 1.9-0.5 0.5-1.2 0.8-1.9 0.8h-65.3v2.7c0 0.7-0.2 1.4-0.8 1.9-0.5 0.5-1.2 0.8-1.9 0.8h-10.8c-0.8 0-1.5-0.3-2-0.8-0.5-0.5-0.8-1.2-0.8-1.9v-2.7h-10.8c-1.5 0-2.8-1.2-2.8-2.7 0-1.5 1.3-2.8 2.8-2.8h10.8v-2.7c0-0.7 0.3-1.4 0.8-1.9 0.5-0.5 1.2-0.8 2-0.8h10.8c0.7 0 1.4 0.3 1.9 0.8 0.6 0.5 0.8 1.2 0.8 1.9v2.7h65.3c0.7 0 1.4 0.3 1.9 0.8 0.5 0.5 0.8 1.2 0.8 2z"/>
		<path id="Shape 1" class="s1" d="m-27-28h223v203h-223z"/>
	</g>
</svg>